<svg width="36" height="36" viewBox="0 0 36 36" fill="none" xmlns="http://www.w3.org/2000/svg">
<path d="M24.9352 4.50593L21.3374 4.5C17.2953 4.5 14.6832 7.25296 14.6832 11.5139V14.7478H11.0658C10.7532 14.7478 10.5 15.0081 10.5 15.3292V20.0147C10.5 20.3358 10.7535 20.5958 11.0658 20.5958H14.6832V32.4189C14.6832 32.74 14.9363 33 15.2489 33H19.9687C20.2812 33 20.5344 32.7397 20.5344 32.4189V20.5958H24.764C25.0766 20.5958 25.3297 20.3358 25.3297 20.0147L25.3315 15.3292C25.3315 15.175 25.2717 15.0274 25.1658 14.9182C25.0599 14.8091 24.9155 14.7478 24.7655 14.7478H20.5344V12.0064C20.5344 10.6887 20.84 10.0198 22.5109 10.0198L24.9346 10.019C25.2469 10.019 25.5 9.75864 25.5 9.43783V5.08706C25.5 4.76655 25.2472 4.50652 24.9352 4.50593Z" fill="#66ADFF"/>
</svg>
