<svg width="36" height="36" viewBox="0 0 36 36" fill="none" xmlns="http://www.w3.org/2000/svg">
<path d="M17.8495 15.8762H30.8562C30.9997 16.6775 31.0714 17.443 31.0714 18.1725C31.0714 20.7679 30.5273 23.0851 29.4389 25.1244C28.3505 27.1636 26.7987 28.7572 24.7834 29.9054C22.7681 31.0536 20.4568 31.6277 17.8495 31.6277C15.9718 31.6277 14.1837 31.2659 12.4854 30.5423C10.7871 29.8187 9.32195 28.841 8.09005 27.6091C6.85816 26.3772 5.88042 24.9121 5.15683 23.2137C4.43324 21.5154 4.07145 19.7273 4.07145 17.8496C4.07145 15.9719 4.43324 14.1838 5.15683 12.4855C5.88042 10.7871 6.85816 9.32203 8.09005 8.09014C9.32195 6.85824 10.7871 5.8805 12.4854 5.15692C14.1837 4.43333 15.9718 4.07153 17.8495 4.07153C21.4376 4.07153 24.5173 5.27353 27.0887 7.67751L23.3392 11.2835C21.8681 9.86024 20.0382 9.14861 17.8495 9.14861C16.3067 9.14861 14.8804 9.53731 13.5708 10.3147C12.2612 11.0921 11.2236 12.1476 10.4582 13.4812C9.69271 14.8147 9.30999 16.2709 9.30999 17.8496C9.30999 19.4283 9.69271 20.8845 10.4582 22.218C11.2236 23.5516 12.2612 24.6071 13.5708 25.3845C14.8804 26.1619 16.3067 26.5506 17.8495 26.5506C18.8901 26.5506 19.8469 26.4071 20.72 26.12C21.593 25.833 22.3107 25.4742 22.8728 25.0436C23.4349 24.6131 23.9253 24.1227 24.3439 23.5725C24.7625 23.0224 25.0705 22.5021 25.2678 22.0117C25.4651 21.5214 25.5997 21.0549 25.6714 20.6124H17.8495V15.8762Z" fill="#66ADFF"/>
</svg>
