<svg width="36" height="36" viewBox="0 0 36 36" fill="none" xmlns="http://www.w3.org/2000/svg">
<path d="M33 17.6137C33 25.6847 26.407 32.2273 18.2727 32.2273C15.6903 32.2273 13.2643 31.5673 11.1537 30.409L3 33L5.65833 25.1593C4.31733 22.9573 3.545 20.3747 3.545 17.6137C3.545 9.54267 10.1387 3 18.2727 3C26.4077 3 33 9.54267 33 17.6137ZM18.2727 5.32733C11.4447 5.32733 5.89067 10.839 5.89067 17.6137C5.89067 20.302 6.767 22.7917 8.24933 24.817L6.70233 29.38L11.4607 27.8677C13.4157 29.1513 15.7577 29.9 18.273 29.9C25.1 29.9 30.655 24.389 30.655 17.6143C30.655 10.8397 25.1003 5.32733 18.2727 5.32733ZM25.7097 20.9793C25.6187 20.8303 25.3783 20.7403 25.0177 20.5613C24.6563 20.3823 22.881 19.5153 22.551 19.3963C22.22 19.277 21.9787 19.217 21.7383 19.5753C21.498 19.934 20.806 20.7403 20.595 20.9793C20.3843 21.219 20.174 21.249 19.8127 21.0697C19.452 20.8907 18.289 20.512 16.91 19.292C15.837 18.3427 15.1123 17.1707 14.9017 16.8117C14.6913 16.4533 14.8797 16.2597 15.06 16.0813C15.2227 15.9207 15.4213 15.663 15.6017 15.454C15.7827 15.2447 15.8427 15.0957 15.9623 14.8563C16.0833 14.6173 16.023 14.4083 15.9323 14.2287C15.8423 14.0497 15.1197 12.287 14.819 11.5697C14.5183 10.853 14.218 10.9723 14.007 10.9723C13.7967 10.9723 13.5557 10.9423 13.315 10.9423C13.0743 10.9423 12.683 11.032 12.352 11.3903C12.0213 11.749 11.089 12.6157 11.089 14.378C11.089 16.1407 12.382 17.8437 12.563 18.0823C12.7433 18.321 15.0597 22.0557 18.7297 23.49C22.4 24.9237 22.4 24.4453 23.062 24.3853C23.7233 24.3257 25.1973 23.519 25.4993 22.683C25.7993 21.8457 25.7993 21.1287 25.7097 20.9793Z" fill="#66ADFF"/>
</svg>
