<svg width="24" height="24" viewBox="0 0 24 24" fill="none" xmlns="http://www.w3.org/2000/svg">
<path d="M19 8.9C19.4971 8.9 19.9 8.49706 19.9 8C19.9 7.50294 19.4971 7.1 19 7.1V8.9ZM11 7.1C10.5029 7.1 10.1 7.50294 10.1 8C10.1 8.49706 10.5029 8.9 11 8.9V7.1ZM19 7.1H11V8.9H19V7.1Z" fill="white"/>
<path d="M13 16.9C13.4971 16.9 13.9 16.4971 13.9 16C13.9 15.5029 13.4971 15.1 13 15.1V16.9ZM5 15.1C4.50294 15.1 4.1 15.5029 4.1 16C4.1 16.4971 4.50294 16.9 5 16.9V15.1ZM13 15.1H5V16.9H13V15.1Z" fill="white"/>
<circle cx="7" cy="8" r="3.5" stroke="white" stroke-width="1.8"/>
<circle cx="17" cy="16" r="3.5" stroke="white" stroke-width="1.8"/>
</svg>
