<svg width="173" height="27" viewBox="0 0 173 27" fill="none" xmlns="http://www.w3.org/2000/svg">
<path d="M16.057 3.097V5.687H9.767V26H6.733V5.687H0.443V3.097H16.057ZM34.705 23.817C35.4697 23.817 36.148 23.7923 36.74 23.743C37.3567 23.6937 37.8623 23.632 38.257 23.558V18.452C37.8623 18.3287 37.3813 18.23 36.814 18.156C36.2713 18.082 35.6917 18.045 35.075 18.045C34.5077 18.045 33.9527 18.0943 33.41 18.193C32.8673 18.267 32.3863 18.415 31.967 18.637C31.5477 18.859 31.2023 19.155 30.931 19.525C30.6597 19.8703 30.524 20.3143 30.524 20.857C30.524 21.967 30.894 22.744 31.634 23.188C32.3987 23.6073 33.4223 23.817 34.705 23.817ZM34.409 8.425C35.6917 8.425 36.7647 8.58533 37.628 8.906C38.516 9.22667 39.2313 9.67067 39.774 10.238C40.3167 10.8053 40.699 11.496 40.921 12.31C41.143 13.124 41.254 14.012 41.254 14.974V25.704C40.5387 25.8273 39.589 25.9753 38.405 26.148C37.2457 26.3207 36.0493 26.407 34.816 26.407C33.8787 26.407 32.966 26.3207 32.078 26.148C31.19 26 30.4007 25.7287 29.71 25.334C29.0193 24.9147 28.4643 24.3473 28.045 23.632C27.6257 22.9167 27.416 22.004 27.416 20.894C27.416 19.9073 27.6257 19.081 28.045 18.415C28.489 17.7243 29.044 17.1693 29.71 16.75C30.4007 16.3307 31.1777 16.0347 32.041 15.862C32.929 15.6647 33.817 15.566 34.705 15.566C35.9137 15.566 37.0977 15.7017 38.257 15.973V15.122C38.257 14.604 38.1953 14.1107 38.072 13.642C37.9733 13.1487 37.7637 12.7047 37.443 12.31C37.147 11.9153 36.7277 11.607 36.185 11.385C35.667 11.1383 34.9887 11.015 34.15 11.015C33.0893 11.015 32.1643 11.089 31.375 11.237C30.5857 11.385 29.9813 11.533 29.562 11.681L29.192 9.165C29.6113 8.96767 30.302 8.795 31.264 8.647C32.2507 8.499 33.299 8.425 34.409 8.425ZM54.167 9.313C55.277 9.04167 56.3747 8.832 57.46 8.684C58.57 8.536 59.606 8.462 60.568 8.462C62.862 8.462 64.5887 9.054 65.748 10.238C66.932 11.422 67.524 13.3213 67.524 15.936V26H64.49V16.491C64.49 15.381 64.3913 14.4807 64.194 13.79C63.9967 13.0993 63.713 12.569 63.343 12.199C62.9977 11.8043 62.566 11.533 62.048 11.385C61.5547 11.237 61.012 11.163 60.42 11.163C59.9267 11.163 59.3963 11.2 58.829 11.274C58.2863 11.3233 57.756 11.3973 57.238 11.496V26H54.167V9.313ZM93.35 11.126C92.906 11.644 92.3017 12.3717 91.537 13.309C90.7723 14.2217 89.946 15.2453 89.058 16.38C88.1947 17.49 87.3313 18.6617 86.468 19.895C85.6047 21.1283 84.84 22.3 84.174 23.41H93.609V26H80.511V23.965C81.029 22.9783 81.6703 21.9053 82.435 20.746C83.2243 19.562 84.0383 18.4027 84.877 17.268C85.7157 16.1087 86.5297 15.011 87.319 13.975C88.133 12.939 88.836 12.0757 89.428 11.385H80.992V8.832H93.35V11.126ZM119.953 25.519C119.287 25.6917 118.399 25.8767 117.289 26.074C116.204 26.2713 114.921 26.37 113.441 26.37C112.134 26.37 111.048 26.185 110.185 25.815C109.322 25.4203 108.619 24.8777 108.076 24.187C107.533 23.4717 107.151 22.633 106.929 21.671C106.707 20.709 106.596 19.6483 106.596 18.489V8.832H109.63V17.823C109.63 19.9443 109.938 21.449 110.555 22.337C111.196 23.225 112.257 23.669 113.737 23.669C114.058 23.669 114.378 23.6567 114.699 23.632C115.044 23.6073 115.365 23.5827 115.661 23.558C115.957 23.5087 116.216 23.4717 116.438 23.447C116.66 23.3977 116.808 23.3607 116.882 23.336V8.832H119.953V25.519ZM139.156 16.565C139.822 17.0583 140.574 17.6873 141.413 18.452C142.252 19.192 143.078 19.9937 143.892 20.857C144.731 21.7203 145.52 22.6083 146.26 23.521C147 24.409 147.592 25.2353 148.036 26H144.41C143.941 25.2353 143.362 24.4583 142.671 23.669C141.98 22.855 141.24 22.078 140.451 21.338C139.686 20.598 138.909 19.9197 138.12 19.303C137.355 18.6863 136.665 18.1683 136.048 17.749V26H132.977V0.876999L136.048 0.358999V16.01C137.405 14.826 138.761 13.6543 140.118 12.495C141.475 11.311 142.696 10.09 143.781 8.832H147.37C146.309 10.09 145.027 11.385 143.522 12.717C142.042 14.049 140.587 15.3317 139.156 16.565ZM166.055 23.817C166.82 23.817 167.498 23.7923 168.09 23.743C168.707 23.6937 169.212 23.632 169.607 23.558V18.452C169.212 18.3287 168.731 18.23 168.164 18.156C167.621 18.082 167.042 18.045 166.425 18.045C165.858 18.045 165.303 18.0943 164.76 18.193C164.217 18.267 163.736 18.415 163.317 18.637C162.898 18.859 162.552 19.155 162.281 19.525C162.01 19.8703 161.874 20.3143 161.874 20.857C161.874 21.967 162.244 22.744 162.984 23.188C163.749 23.6073 164.772 23.817 166.055 23.817ZM165.759 8.425C167.042 8.425 168.115 8.58533 168.978 8.906C169.866 9.22667 170.581 9.67067 171.124 10.238C171.667 10.8053 172.049 11.496 172.271 12.31C172.493 13.124 172.604 14.012 172.604 14.974V25.704C171.889 25.8273 170.939 25.9753 169.755 26.148C168.596 26.3207 167.399 26.407 166.166 26.407C165.229 26.407 164.316 26.3207 163.428 26.148C162.54 26 161.751 25.7287 161.06 25.334C160.369 24.9147 159.814 24.3473 159.395 23.632C158.976 22.9167 158.766 22.004 158.766 20.894C158.766 19.9073 158.976 19.081 159.395 18.415C159.839 17.7243 160.394 17.1693 161.06 16.75C161.751 16.3307 162.528 16.0347 163.391 15.862C164.279 15.6647 165.167 15.566 166.055 15.566C167.264 15.566 168.448 15.7017 169.607 15.973V15.122C169.607 14.604 169.545 14.1107 169.422 13.642C169.323 13.1487 169.114 12.7047 168.793 12.31C168.497 11.9153 168.078 11.607 167.535 11.385C167.017 11.1383 166.339 11.015 165.5 11.015C164.439 11.015 163.514 11.089 162.725 11.237C161.936 11.385 161.331 11.533 160.912 11.681L160.542 9.165C160.961 8.96767 161.652 8.795 162.614 8.647C163.601 8.499 164.649 8.425 165.759 8.425Z" fill="#66ADFF"/>
</svg>
